<svg id="svg" version="1.1" width="400" height="162.53602305475505" viewBox="0 0 400 162.53602305475505" xmlns="http://www.w3.org/2000/svg" xmlns:xlink="http://www.w3.org/1999/xlink" ><g id="svgg"><path id="path0" d="" stroke="none" fill="#000000" fill-rule="evenodd"></path><path id="path1" d="" stroke="none" fill="#555555" fill-rule="evenodd"></path><path id="path2" d="" stroke="none" fill="#6d6d6d" fill-rule="evenodd"></path><path id="path3" d="" stroke="none" fill="#0f2d4b" fill-rule="evenodd"></path><path id="path4" d="M79.385 39.457 C 77.849 42.593,64.642 69.191,54.246 90.083 C 38.775 121.177,36.358 126.091,36.475 126.208 C 36.545 126.279,41.274 126.317,46.984 126.293 L 57.366 126.250 57.831 125.333 C 58.086 124.829,58.449 124.079,58.638 123.667 C 58.826 123.254,59.404 122.017,59.921 120.917 C 60.439 119.817,61.053 118.504,61.287 118.000 C 61.521 117.496,62.047 116.371,62.456 115.500 C 62.864 114.629,63.398 113.488,63.641 112.965 L 64.083 112.013 82.180 112.006 L 100.277 112.000 100.451 112.375 C 100.547 112.581,100.855 113.237,101.136 113.833 C 101.416 114.429,101.995 115.667,102.421 116.583 C 103.221 118.301,103.804 119.538,105.170 122.417 C 105.606 123.333,106.199 124.590,106.489 125.208 L 107.017 126.333 127.425 126.333 L 147.833 126.333 147.833 108.074 L 147.833 89.815 150.125 89.924 C 159.337 90.362,161.823 92.357,167.039 103.500 C 167.403 104.279,168.117 105.779,168.626 106.833 C 169.134 107.888,169.867 109.425,170.255 110.250 C 170.642 111.075,171.464 112.800,172.081 114.083 C 173.405 116.839,174.686 119.522,175.941 122.167 C 176.442 123.221,177.095 124.571,177.394 125.167 L 177.936 126.250 188.849 126.293 L 199.762 126.336 199.789 125.974 C 199.804 125.775,199.192 124.405,198.427 122.931 C 197.663 121.456,196.176 118.563,195.121 116.500 C 194.067 114.438,192.607 111.587,191.876 110.167 C 189.459 105.468,187.232 101.127,185.504 97.750 C 182.856 92.574,181.410 89.803,181.027 89.167 C 180.834 88.846,180.551 88.358,180.399 88.083 C 180.047 87.449,178.960 85.777,178.828 85.667 C 178.773 85.621,178.476 85.208,178.168 84.750 C 176.789 82.698,173.128 79.478,170.583 78.079 C 170.125 77.827,169.726 77.601,169.696 77.576 C 169.667 77.552,169.759 77.393,169.901 77.224 C 170.042 77.055,171.214 75.492,172.504 73.750 C 173.794 72.008,174.991 70.396,175.165 70.167 C 175.339 69.938,175.708 69.450,175.987 69.083 C 176.265 68.717,176.733 68.079,177.027 67.667 C 177.321 67.254,177.606 66.879,177.660 66.833 C 177.714 66.787,178.169 66.188,178.671 65.500 C 179.173 64.813,179.674 64.138,179.786 64.000 C 180.114 63.594,180.953 62.473,181.530 61.667 C 181.826 61.254,182.165 60.817,182.285 60.695 C 182.404 60.574,182.583 60.324,182.681 60.140 C 182.856 59.813,182.985 59.642,183.844 58.601 C 184.079 58.316,184.453 57.821,184.675 57.500 C 184.897 57.179,185.171 56.804,185.283 56.667 C 185.396 56.529,186.092 55.592,186.830 54.583 C 187.568 53.575,188.306 52.600,188.470 52.417 C 188.633 52.233,188.950 51.821,189.173 51.500 C 189.396 51.179,189.671 50.804,189.783 50.667 C 189.896 50.529,190.593 49.592,191.333 48.583 C 192.073 47.575,192.771 46.637,192.884 46.500 C 192.997 46.362,193.283 45.987,193.520 45.667 C 193.756 45.346,194.505 44.343,195.183 43.438 C 195.862 42.534,196.586 41.559,196.793 41.272 C 197.000 40.985,197.263 40.637,197.379 40.500 C 198.024 39.732,199.667 37.358,199.667 37.193 C 199.667 37.048,196.703 37.000,187.838 37.000 L 176.010 37.000 175.144 38.292 C 174.667 39.002,174.232 39.621,174.176 39.667 C 174.121 39.712,173.933 39.973,173.760 40.246 C 173.586 40.518,173.380 40.818,173.303 40.912 C 172.744 41.593,172.167 42.399,172.167 42.497 C 172.167 42.562,171.979 42.833,171.750 43.099 C 171.521 43.365,171.334 43.634,171.334 43.696 C 171.333 43.759,171.237 43.909,171.120 44.030 C 171.002 44.151,170.129 45.370,169.180 46.739 C 168.232 48.109,167.386 49.309,167.301 49.406 C 167.216 49.504,167.020 49.779,166.865 50.019 C 166.098 51.206,165.593 51.930,165.391 52.133 C 165.267 52.256,165.167 52.413,165.167 52.480 C 165.167 52.548,165.032 52.749,164.869 52.927 C 164.705 53.105,164.077 53.962,163.475 54.833 C 162.873 55.704,161.596 57.542,160.638 58.917 C 159.679 60.292,158.638 61.789,158.323 62.244 C 158.008 62.699,157.619 63.220,157.458 63.401 C 157.298 63.581,157.167 63.785,157.167 63.853 C 157.167 63.921,157.066 64.077,156.943 64.200 C 156.820 64.323,156.522 64.722,156.282 65.087 C 156.042 65.452,155.631 66.050,155.369 66.417 C 153.699 68.756,151.986 71.223,151.729 71.658 C 151.563 71.938,151.374 72.167,151.309 72.167 C 151.243 72.167,151.146 72.303,151.093 72.471 C 151.040 72.638,150.866 72.919,150.706 73.096 C 150.385 73.451,150.343 73.510,148.917 75.590 L 147.917 77.049 147.874 57.025 L 147.832 37.000 137.666 37.000 L 127.501 37.000 127.459 81.276 L 127.417 125.553 123.327 117.401 C 121.078 112.918,114.859 100.550,109.508 89.917 C 104.156 79.283,97.571 66.196,94.874 60.833 C 92.177 55.471,88.308 47.783,86.277 43.750 L 82.583 36.417 81.750 36.374 L 80.917 36.331 79.385 39.457 M82.333 71.936 C 82.333 72.242,83.271 75.226,83.583 75.917 C 83.708 76.192,83.974 76.867,84.174 77.417 C 84.541 78.426,84.669 78.737,85.334 80.250 C 85.928 81.601,87.164 84.269,88.500 87.083 C 88.935 88.000,89.607 89.425,89.994 90.250 C 91.800 94.102,92.047 94.624,92.347 95.224 C 92.523 95.576,92.667 95.895,92.667 95.932 C 92.667 95.970,87.942 96.000,82.167 96.000 C 76.392 96.000,71.667 95.958,71.667 95.908 C 71.667 95.787,72.203 94.583,73.000 92.917 C 74.642 89.485,75.500 87.656,75.500 87.590 C 75.500 87.551,75.907 86.671,76.404 85.634 C 78.070 82.163,79.333 79.413,79.333 79.257 C 79.333 79.205,79.474 78.845,79.646 78.457 C 80.170 77.272,80.667 75.966,80.668 75.769 C 80.668 75.667,80.764 75.396,80.881 75.167 C 80.998 74.938,81.194 74.412,81.316 74.000 C 81.439 73.587,81.599 73.063,81.672 72.833 C 81.746 72.604,81.852 72.207,81.908 71.952 C 82.010 71.483,82.333 71.471,82.333 71.936 " stroke="none" fill="#284456" fill-rule="evenodd"></path><path id="path5" d="M314.247 42.208 C 312.628 45.440,308.504 53.633,305.082 60.417 C 301.659 67.200,298.626 73.237,298.341 73.833 C 298.056 74.429,297.718 75.104,297.590 75.333 C 297.343 75.778,296.925 76.618,296.347 77.833 C 296.150 78.246,295.920 78.696,295.835 78.833 C 295.750 78.971,294.762 80.921,293.639 83.167 C 292.517 85.412,289.457 91.503,286.841 96.702 C 284.224 101.901,279.890 110.526,277.208 115.869 L 272.333 125.583 272.333 81.292 L 272.333 37.000 262.167 37.000 L 252.000 37.000 251.994 57.042 C 251.989 76.005,251.974 77.065,251.703 76.737 C 251.406 76.379,251.105 75.967,250.460 75.042 C 250.253 74.745,249.333 73.440,248.417 72.142 C 247.500 70.845,246.539 69.476,246.282 69.100 C 245.565 68.053,245.269 67.650,245.042 67.410 C 244.927 67.289,244.833 67.144,244.833 67.088 C 244.833 67.032,244.759 66.895,244.669 66.785 C 244.104 66.091,243.538 65.307,242.002 63.083 C 241.051 61.708,240.175 60.484,240.054 60.363 C 239.932 60.242,239.833 60.079,239.833 60.000 C 239.833 59.921,239.735 59.758,239.614 59.637 C 239.493 59.516,238.584 58.258,237.594 56.841 C 236.604 55.425,235.634 54.037,235.438 53.758 C 235.243 53.479,234.933 53.053,234.750 52.813 C 234.299 52.221,233.803 51.531,233.500 51.075 C 232.592 49.708,229.948 45.972,229.746 45.769 C 229.611 45.634,229.500 45.443,229.500 45.345 C 229.500 45.247,229.434 45.167,229.354 45.167 C 229.273 45.167,229.114 44.942,229.000 44.667 C 228.886 44.392,228.740 44.167,228.676 44.167 C 228.612 44.167,228.373 43.885,228.146 43.542 C 227.127 41.999,224.236 37.886,223.966 37.594 C 223.801 37.416,223.667 37.210,223.667 37.135 C 223.667 37.061,218.304 37.000,211.750 37.000 C 205.196 37.000,199.833 37.064,199.833 37.142 C 199.833 37.276,200.543 38.313,201.074 38.954 C 201.209 39.117,201.924 40.075,202.663 41.083 C 203.401 42.092,204.098 43.031,204.211 43.170 C 204.324 43.309,204.640 43.722,204.914 44.087 C 205.187 44.451,205.503 44.862,205.615 45.000 C 205.728 45.137,206.424 46.075,207.163 47.083 C 207.901 48.092,208.599 49.029,208.714 49.167 C 208.828 49.304,209.101 49.679,209.320 50.000 C 209.539 50.321,209.804 50.658,209.910 50.750 C 210.015 50.842,210.343 51.254,210.638 51.667 C 211.281 52.567,212.088 53.642,212.419 54.040 C 212.552 54.199,213.053 54.874,213.532 55.540 C 214.012 56.205,214.449 56.788,214.505 56.833 C 214.560 56.879,214.859 57.292,215.169 57.750 C 215.479 58.208,215.818 58.658,215.924 58.750 C 216.029 58.842,216.292 59.179,216.508 59.500 C 216.724 59.821,216.948 60.121,217.006 60.167 C 217.064 60.212,217.515 60.813,218.008 61.500 C 218.501 62.188,218.948 62.788,219.002 62.833 C 219.055 62.879,219.278 63.179,219.497 63.500 C 219.716 63.821,220.088 64.316,220.323 64.601 C 221.191 65.653,221.333 65.839,221.333 65.917 C 221.333 66.007,221.776 66.568,222.208 67.025 C 222.369 67.195,222.500 67.370,222.500 67.415 C 222.500 67.460,222.608 67.628,222.740 67.790 C 222.872 67.951,223.512 68.796,224.162 69.667 C 224.812 70.537,225.437 71.362,225.549 71.500 C 225.662 71.637,225.934 72.012,226.153 72.333 C 226.372 72.654,226.637 72.992,226.740 73.083 C 226.844 73.175,227.108 73.512,227.327 73.833 C 227.546 74.154,228.237 75.096,228.862 75.927 C 230.025 77.471,230.133 77.667,229.822 77.667 C 229.459 77.667,226.792 79.377,225.419 80.491 C 224.517 81.222,221.972 83.899,221.448 84.667 C 221.166 85.079,220.875 85.442,220.801 85.472 C 220.727 85.503,220.667 85.596,220.667 85.680 C 220.667 85.764,220.404 86.198,220.083 86.645 C 219.762 87.091,219.500 87.541,219.500 87.645 C 219.500 87.749,219.443 87.833,219.373 87.833 C 219.303 87.833,219.172 87.978,219.081 88.155 C 218.272 89.740,217.903 90.429,217.827 90.500 C 217.778 90.546,217.113 91.821,216.348 93.333 C 215.584 94.846,214.118 97.733,213.091 99.750 C 212.065 101.767,209.513 106.792,207.420 110.917 C 205.328 115.042,202.798 120.029,201.798 122.000 C 200.798 123.971,199.945 125.752,199.903 125.958 L 199.827 126.333 210.913 126.333 C 217.247 126.333,222.000 126.270,222.000 126.186 C 222.000 126.023,222.919 124.030,224.700 120.333 C 225.340 119.004,226.077 117.467,226.337 116.917 C 226.597 116.367,227.367 114.754,228.048 113.333 C 229.225 110.879,229.618 110.057,231.667 105.750 C 235.776 97.116,235.668 97.326,236.962 95.514 C 239.557 91.885,243.389 90.222,249.875 89.910 L 252.000 89.808 252.000 108.071 L 252.000 126.333 272.384 126.333 L 292.767 126.333 293.487 124.792 C 293.882 123.944,294.468 122.688,294.789 122.000 C 295.109 121.313,295.766 119.925,296.249 118.917 C 296.732 117.908,297.390 116.521,297.712 115.833 C 298.034 115.146,298.573 114.002,298.910 113.292 L 299.523 112.000 317.590 112.000 L 335.657 112.000 336.342 113.458 C 336.718 114.260,337.235 115.367,337.491 115.917 C 337.747 116.467,338.334 117.704,338.796 118.667 C 339.258 119.629,339.823 120.829,340.051 121.333 C 340.659 122.679,341.642 124.814,342.027 125.625 L 342.363 126.333 352.848 126.333 C 361.125 126.333,363.333 126.289,363.334 126.125 C 363.334 125.898,363.173 125.571,349.505 98.083 C 344.354 87.725,337.904 74.750,335.172 69.250 C 332.440 63.750,327.638 54.094,324.501 47.792 L 318.797 36.333 317.994 36.333 L 317.191 36.333 314.247 42.208 M318.005 72.500 C 318.310 73.577,318.937 75.504,319.173 76.085 C 319.450 76.768,319.597 77.151,319.845 77.833 C 319.962 78.154,320.307 78.966,320.612 79.637 C 320.917 80.308,321.167 80.894,321.167 80.939 C 321.167 80.983,321.458 81.634,321.814 82.385 C 323.094 85.088,324.318 87.696,325.385 90.000 C 326.958 93.395,327.542 94.637,327.841 95.224 C 328.020 95.576,328.167 95.895,328.167 95.932 C 328.167 95.970,323.442 96.000,317.667 96.000 C 311.892 96.000,307.167 95.972,307.167 95.937 C 307.167 95.828,307.998 93.971,308.742 92.417 C 309.137 91.592,309.723 90.354,310.044 89.667 C 310.365 88.979,311.003 87.629,311.461 86.667 C 313.287 82.829,313.665 82.019,314.373 80.417 C 314.778 79.500,315.205 78.487,315.322 78.167 C 315.552 77.533,315.627 77.342,316.142 76.071 C 316.505 75.173,316.774 74.370,317.251 72.750 C 317.576 71.649,317.710 71.345,317.760 71.592 C 317.778 71.679,317.888 72.087,318.005 72.500 " stroke="none" fill="#738591" fill-rule="evenodd"></path><path id="path6" d="" stroke="none" fill="#339999" fill-rule="evenodd"></path><path id="path7" d="" stroke="none" fill="#00ffff" fill-rule="evenodd"></path></g></svg>